<?xml version="1.0" encoding="UTF-8" standalone="no"?>
<!DOCTYPE svg PUBLIC "-//W3C//DTD SVG 1.1//EN" "http://www.w3.org/Graphics/SVG/1.1/DTD/svg11.dtd">
<svg version="1.1" xmlns="http://www.w3.org/2000/svg" xmlns:xlink="http://www.w3.org/1999/xlink" xml:space="preserve" xmlns:serif="http://www.serif.com/" style="fill-rule:evenodd;clip-rule:evenodd;stroke-linejoin:round;stroke-miterlimit:2;">
    <g transform="matrix(0.762553,0,0,0.762553,10.1493,22.7062)">
        <g>
            <path d="M85.2,59.8C82.1,59.8 79.5,62.4 79.5,65.5C79.5,68.6 82.1,71.2 85.2,71.2C88.3,71.2 90.9,68.6 90.9,65.5C90.9,62.3 88.3,59.8 85.2,59.8ZM85.2,69.8C82.8,69.8 80.9,67.9 80.9,65.5C80.9,63.1 82.8,61.2 85.2,61.2C87.6,61.2 89.5,63.1 89.5,65.5C89.5,67.8 87.5,69.8 85.2,69.8Z" style="fill-rule:nonzero;"/>
            <circle cx="85.2" cy="65.5" r="2.3"/>
            <path d="M24,69.8C21.9,69.8 20.1,68.2 19.8,66.2L18.4,66.2C18.7,69 21.1,71.2 24.1,71.2C27.1,71.2 29.4,69 29.8,66.2L28.4,66.2C27.9,68.2 26.2,69.8 24,69.8Z" style="fill-rule:nonzero;"/>
            <path d="M26.2,66.2L21.9,66.2C22.2,67.1 23.1,67.8 24.1,67.8C25,67.8 25.9,67.1 26.2,66.2Z" style="fill-rule:nonzero;"/>
            <path d="M60.7,57.7C59.2,57.3 57.8,58.2 57.4,59.7C57.3,60.2 57.3,60.7 57.5,61.2L62.1,58.5C61.7,58.1 61.3,57.9 60.7,57.7Z" style="fill-rule:nonzero;"/>
            <path d="M59.4,63C60.9,63.4 62.3,62.5 62.7,61C62.8,60.5 62.8,60.1 62.7,59.6L58.2,62.3C58.5,62.7 58.9,62.9 59.4,63Z" style="fill-rule:nonzero;"/>
            <path d="M98.8,63L97,61.2L97.5,60.7C97.5,60.7 99.1,59.7 98,57.3L98.8,57.3C98.8,57.3 98.7,54.5 93.2,54.4C87.7,54.3 34.4,55.4 34.4,55.4L1.2,53.2L3.9,55.1L3.9,58C3.9,58 3.1,57.6 1.6,60.2C1.6,60.2 0.5,60.3 0.5,61.3L0.5,62.9C0.5,62.9 1.5,63.1 2,64L2,65.4L10,65.4L10,65L29.8,65L31.2,66.4L76.6,66.4C76.6,66.4 78.9,58.4 81.9,58.4L87,58.4C87,58.4 92.7,58.9 92.7,65.5L98.2,65.5C98.2,65.5 100.6,64.8 98.8,63ZM63.6,61.3C63.1,63.2 61.1,64.4 59.2,63.9C57.3,63.4 56.1,61.4 56.6,59.5C57.1,57.6 59.1,56.4 61,56.9C62.9,57.3 64.1,59.3 63.6,61.3Z" style="fill-rule:nonzero;"/>
            <path d="M1.3,56.4C1.3,57 2.9,57.2 2.9,57.2L2.9,55.7C2.9,55.7 1.3,55.8 1.3,56.4Z" style="fill-rule:nonzero;"/>
            <path d="M71.6,54C71.6,54 68.6,52.4 69.4,50.8C69.8,50.1 70.2,49.1 70.1,48C71.6,48.9 73.6,51.3 75,53.9L75.9,53.9C74.1,50.4 71.2,47.7 69.6,46.8C69.1,46 68.2,45.3 66.5,44.7L66.4,44.3C66.6,44.4 66.8,44.4 67.1,44.4L67.1,41.5C66.2,41.5 65.5,42.1 65.5,42.9L63.5,44C61.9,43.8 59.7,43.6 57.3,43.5C57.2,43 57,42.6 56.6,42.1C56.4,41.9 56.2,41.7 55.9,41.5L55.8,40.7C56,40.8 56.2,40.8 56.5,40.8L56.5,37.9C55.6,37.9 54.9,38.5 54.9,39.3L53,40.1C52.3,39.9 51.6,39.8 51,39.7C50.7,39.2 50.1,38.8 49.5,38.8L43.5,38.8L43.5,38.5C43.5,38.2 43.2,37.9 42.9,37.9L39.8,37.9L39.8,35.8L39.2,35.8L39.2,34.5L38.8,34.5L38.8,33.8L39.3,33.8L39.3,33.3L47.9,33.3C48.2,33.3 48.4,33.1 48.4,32.8C48.4,32.5 48.2,32.3 47.9,32.3L39.3,32.3L39.3,31.7L37.8,31.7L37.8,33.8L38.3,33.8L38.3,34.5L37.9,34.5L37.9,35.8L37.3,35.8L37.3,37.9L36.8,37.9C36.5,37.9 36.2,38.2 36.2,38.5L36.2,38.8L35.8,38.8L35.8,38.5C35.8,38.2 35.5,37.9 35.2,37.9L29,37.9C28.7,37.9 28.4,38.2 28.4,38.5L28.4,33.9L29.5,32.8C29.6,32.9 29.8,33 29.9,33L30.8,33C31.1,33 31.4,32.7 31.4,32.4L31.4,29.6C31.4,29.3 31.1,29 30.8,29L29.9,29C29.6,29 29.3,29.3 29.3,29.6L29.3,31.7L28.4,32.6L28.4,32L27.5,32L27.5,38.7C27,38.9 26.6,39.1 26.3,39.4C25.8,40 25.7,40.6 25.7,40.9L25.4,43.5C23.6,43.6 21.9,43.9 20.3,44.1C20.3,44.1 20.2,43.9 20.1,43.9C19.6,43.5 17.8,42.9 17.8,42.9C17.8,42.1 17.1,41.5 16.2,41.5L16.2,44.4C16.4,44.4 16.7,44.3 16.9,44.3L16.8,44.7C12.7,45.6 12,46.5 8,52.7L34.5,54.6L71.6,54ZM66.1,47.4C67.6,47.4 68.3,47.9 68.4,48.5C68.6,49.1 67.2,52.9 67.2,52.9L66,52.9L66,47.4L66.1,47.4ZM65.4,47.2L65.4,52.9L53.3,52.9L53.3,46.9C62.1,46.9 65.4,47.2 65.4,47.2ZM51.2,42L51.2,40.8C52.8,41.1 54.9,41.7 55.9,42.8C56.1,43 56.2,43.2 56.3,43.4C54.5,43.3 52.6,43.3 50.7,43.2C51,42.9 51.2,42.5 51.2,42ZM35.5,46.9L51.5,46.9L51.5,52.9L35.5,52.9L35.5,46.9ZM26.7,40.9C26.7,40.9 26.7,40.5 27,40.1C27.2,39.9 27.5,39.7 27.9,39.6C27.7,39.9 27.7,40.2 27.7,40.5L27.7,42C27.7,42.6 28,43.1 28.4,43.4C27.7,43.4 27.1,43.4 26.4,43.5L26.7,40.9ZM9.4,51.7C9.4,51.7 12.5,47.1 13.1,46.9L18.3,46.9L17.1,51.7L9.4,51.7ZM24.4,52.2L18.2,51.7L19.3,46.9L25,46.9L24.4,52.2ZM33.8,52.9L25.3,52.3L25.9,47L33.7,47L33.7,52.9L33.8,52.9Z" style="fill-rule:nonzero;"/>
        </g>
    </g>
</svg>
