<?xml version="1.0" encoding="UTF-8" standalone="no"?>
<!DOCTYPE svg PUBLIC "-//W3C//DTD SVG 1.1//EN" "http://www.w3.org/Graphics/SVG/1.1/DTD/svg11.dtd">
<svg width="100%" height="100%" viewBox="0 0 32 32" version="1.1" xmlns="http://www.w3.org/2000/svg" xmlns:xlink="http://www.w3.org/1999/xlink" xml:space="preserve" xmlns:serif="http://www.serif.com/" style="fill-rule:evenodd;clip-rule:evenodd;stroke-linejoin:round;stroke-miterlimit:2;">
    <path d="M30.7,0L1.3,0C0.6,0 0,0.6 0,1.3L0,30.6C0,31.4 0.6,32 1.3,32L30.6,32C31.3,32 31.9,31.4 31.9,30.7L31.9,1.3C32,0.6 31.4,0 30.7,0ZM9.5,27.3L4.7,27.3L4.7,12L9.5,12L9.5,27.3ZM7.1,9.9C5.6,9.9 4.3,8.7 4.3,7.1C4.3,5.6 5.5,4.3 7.1,4.3C8.6,4.3 9.9,5.5 9.9,7.1C9.9,8.7 8.6,9.9 7.1,9.9ZM27.3,27.3L22.6,27.3L22.6,19.9C22.6,18.1 22.6,15.9 20.1,15.9C17.6,15.9 17.3,17.8 17.3,19.8L17.3,27.4L12.6,27.4L12.6,12L17,12L17,14.1L17.1,14.1C17.7,12.9 19.3,11.6 21.6,11.6C26.4,11.6 27.3,14.8 27.3,18.9L27.3,27.3Z" style="fill:white;fill-rule:nonzero;"/>
</svg>
